Coordinates
version=1
nRows=37
nColumns=34
inDegrees=no

Units are S.I. units (second, meters, Newtons, ...)
If the header above contains a line with 'inDegrees', this indicates whether rotational values are in degrees (yes) or radians (no).

endheader
time	pelvis_tilt	pelvis_list	pelvis_rotation	pelvis_tx	pelvis_ty	pelvis_tz	hip_flexion_r	hip_adduction_r	hip_rotation_r	knee_angle_r	ankle_angle_r	subtalar_angle_r	mtp_angle_r	hip_flexion_l	hip_adduction_l	hip_rotation_l	knee_angle_l	ankle_angle_l	subtalar_angle_l	mtp_angle_l	lumbar_extension	lumbar_bending	lumbar_rotation	arm_flex_r	arm_add_r	arm_rot_r	elbow_flex_r	pro_sup_r	arm_flex_l	arm_add_l	arm_rot_l	elbow_flex_l	pro_sup_l
0.02	0.240042	0.0514264	0.20736	-0.300907	1.03754	-0.238012	0.199431	-0.0625006	-0.295535	-0.0132983	0.211471	0.263447	-0.0668681	-0.51059	-0.0265054	-0.201227	0.12113	0.439781	0.490782	-0.0844476	-0.490439	0.0394031	-0.105072	-0.360494	-0.101242	-0.349585	0.470107	2.14337	0.275599	-0.285484	-0.11829	0.925553	2.06271
0.03	0.239476	0.0459636	0.213832	-0.285706	1.0379	-0.237791	0.194957	-0.052963	-0.288505	-0.00658292	0.206628	0.247524	-0.0668752	-0.519449	-0.0418658	-0.212914	0.129742	0.440295	0.508102	-0.0843794	-0.488829	0.0455995	-0.106182	-0.368918	-0.0980705	-0.353877	0.469168	2.14424	0.276688	-0.290408	-0.118531	0.944836	2.06592
0.04	0.239353	0.0397111	0.219829	-0.270248	1.03844	-0.237426	0.188488	-0.0417512	-0.279068	-0.00247443	0.19588	0.229336	-0.0668824	-0.527248	-0.0584703	-0.224538	0.141006	0.437696	0.523627	-0.0843112	-0.487189	0.0522431	-0.106913	-0.375874	-0.0953305	-0.357496	0.467741	2.14492	0.275308	-0.294861	-0.120027	0.963561	2.06897
0.05	0.23967	0.0326932	0.225344	-0.254534	1.03917	-0.23692	0.180064	-0.0289233	-0.26734	-0.000890646	0.179351	0.209029	-0.0668895	-0.53399	-0.0762742	-0.236015	0.154927	0.431937	0.537231	-0.084243	-0.485521	0.0593074	-0.107265	-0.381368	-0.0930248	-0.360444	0.465838	2.14544	0.271467	-0.298833	-0.12277	0.981705	2.07185
0.06	0.240432	0.0249847	0.230349	-0.238569	1.0401	-0.236279	0.169803	-0.0146471	-0.253679	-0.00156707	0.157446	0.187037	-0.0668967	-0.539682	-0.0951485	-0.247102	0.171521	0.422869	0.54855	-0.0841748	-0.48384	0.066719	-0.107232	-0.385424	-0.0911611	-0.362727	0.463507	2.14582	0.265192	-0.302302	-0.126734	0.999201	2.07457
0.07	0.241656	0.0167137	0.234788	-0.22236	1.04123	-0.235514	0.157921	0.000781908	-0.238768	-0.00398732	0.130957	0.164136	-0.0669039	-0.544334	-0.11487	-0.257387	0.190823	0.410203	0.556936	-0.0841065	-0.482185	0.0743546	-0.106783	-0.388101	-0.0897495	-0.364374	0.460857	2.14616	0.256548	-0.305222	-0.131856	1.01592	2.07707
0.08	0.243375	0.00804484	0.238576	-0.205921	1.04257	-0.23464	0.144727	0.0169646	-0.223596	-0.00737599	0.101085	0.141382	-0.066911	-0.547897	-0.135145	-0.266337	0.212914	0.393499	0.561509	-0.0840382	-0.480623	0.082055	-0.105842	-0.389499	-0.0887983	-0.365446	0.458082	2.14656	0.24566	-0.307529	-0.138014	1.03168	2.07931
0.09	0.24561	-0.000865511	0.241616	-0.189279	1.04413	-0.233669	0.130619	0.033472	-0.209304	-0.0107928	0.0693231	0.119876	-0.0669182	-0.550185	-0.155678	-0.273441	0.237976	0.372212	0.561331	-0.08397	-0.47922	0.0896639	-0.104275	-0.389764	-0.0883081	-0.366044	0.455466	2.14718	0.23273	-0.309149	-0.145024	1.04626	2.08117
0.1	0.248301	-0.00989979	0.243824	-0.172475	1.04591	-0.232611	0.11611	0.0498926	-0.197078	-0.0132496	0.0373442	0.100677	-0.0669253	-0.550803	-0.176225	-0.278282	0.266355	0.345746	0.555537	-0.0839017	-0.477993	0.0970502	-0.101909	-0.389067	-0.0882675	-0.366291	0.453374	2.14821	0.218046	-0.310007	-0.152628	1.0594	2.0825
0.11	0.251264	-0.0189865	0.245149	-0.155575	1.04787	-0.231472	0.101836	0.0658594	-0.188032	-0.0138254	0.00688144	0.0847713	-0.0669325	-0.549113	-0.196597	-0.280573	0.298548	0.313555	0.543441	-0.0838334	-0.476861	0.104112	-0.0985563	-0.387584	-0.0886576	-0.366316	0.452219	2.14979	0.201983	-0.310042	-0.160515	1.07086	2.0831
0.12	0.254184	-0.0280977	0.245586	-0.138662	1.04995	-0.230255	0.0884974	0.0810771	-0.183066	-0.0117892	-0.0204215	0.0730189	-0.0669397	-0.544288	-0.216662	-0.280147	0.335115	0.275275	0.524664	-0.083765	-0.475649	0.110778	-0.0940548	-0.385474	-0.0894625	-0.366211	0.452419	2.152	0.18497	-0.309218	-0.16835	1.08045	2.08272
0.13	0.256678	-0.0372407	0.245179	-0.121833	1.0521	-0.228965	0.0767575	0.0953525	-0.182699	-0.00670706	-0.0431725	0.0660327	-0.0669468	-0.535419	-0.236325	-0.276951	0.376542	0.230893	0.499256	-0.0836967	-0.474123	0.117018	-0.0882999	-0.382862	-0.0906822	-0.36601	0.454347	2.15482	0.167451	-0.307525	-0.175813	1.08801	2.08109
0.14	0.258393	-0.0464441	0.244015	-0.105181	1.05422	-0.22761	0.0670846	0.108623	-0.186917	0.00149337	-0.0603841	0.0640215	-0.066954	-0.521698	-0.2555	-0.270997	0.423064	0.180916	0.467783	-0.0836283	-0.472079	0.122845	-0.0812633	-0.379827	-0.0923426	-0.365674	0.458289	2.15812	0.14984	-0.30498	-0.182642	1.09345	2.07798
0.15	0.259096	-0.0557415	0.242227	-0.0887921	1.05625	-0.226205	0.0596497	0.120966	-0.195095	0.0124955	-0.0716003	0.066631	-0.0669612	-0.502599	-0.274088	-0.262324	0.474558	0.126511	0.431337	-0.0835599	-0.469399	0.128317	-0.0730093	-0.376401	-0.0944944	-0.365096	0.464413	2.16163	0.132486	-0.301625	-0.188664	1.09671	2.07323
0.16	0.258704	-0.0651463	0.239987	-0.0727313	1.0581	-0.224767	0.0542988	0.132569	-0.206034	0.0256381	-0.0769349	0.0728938	-0.0669683	-0.477981	-0.291949	-0.250968	0.53051	0.0695884	0.391475	-0.0834915	-0.466088	0.133519	-0.0637003	-0.372561	-0.0972008	-0.364142	0.472761	2.16501	0.115658	-0.297525	-0.193803	1.09781	2.06683
0.17	0.257287	-0.0746214	0.237491	-0.0570416	1.05974	-0.223321	0.0505957	0.143671	-0.218143	0.0400281	-0.0769999	0.0813527	-0.0669755	-0.448104	-0.308866	-0.236961	0.590048	0.0127747	0.350107	-0.0834231	-0.46227	0.138521	-0.053588	-0.368235	-0.100517	-0.362692	0.483245	2.16788	0.0995401	-0.29276	-0.198077	1.09676	2.05895
0.18	0.255046	-0.0840532	0.234941	-0.0417398	1.06112	-0.221888	0.0479028	0.154486	-0.229712	0.0546833	-0.0727629	0.0903084	-0.0669827	-0.413586	-0.324527	-0.220353	0.652009	-0.0407555	0.309315	-0.0833547	-0.45818	0.143342	-0.0429892	-0.363308	-0.104469	-0.360697	0.495665	2.16994	0.0842414	-0.287428	-0.201572	1.09361	2.04991
0.19	0.252276	-0.0932391	0.232513	-0.0268199	1.06227	-0.220488	0.0454761	0.165135	-0.239184	0.0686684	-0.0653751	0.0981099	-0.0669899	-0.375321	-0.338524	-0.201259	0.715046	-0.0876044	0.271126	-0.0832862	-0.454123	0.147915	-0.0322505	-0.357642	-0.109035	-0.358206	0.50974	2.17096	0.0698054	-0.281643	-0.204414	1.08838	2.0402
0.2	0.249313	-0.101894	0.230336	-0.0122442	1.06327	-0.219145	0.0425594	0.175611	-0.24537	0.0811999	-0.0560062	0.103413	-0.0669971	-0.334381	-0.350384	-0.179912	0.77772	-0.124595	0.237268	-0.0832177	-0.450446	0.152073	-0.0217067	-0.351095	-0.114136	-0.355387	0.525132	2.17087	0.0562264	-0.275534	-0.206731	1.08107	2.03037
0.21	0.246494	-0.109679	0.228474	0.00201504	1.0642	-0.217885	0.0384643	0.185768	-0.247565	0.0917128	-0.0457074	0.105351	-0.0670042	-0.291899	-0.359626	-0.15671	0.838605	-0.149247	0.208949	-0.0831492	-0.447482	0.15556	-0.011642	-0.343545	-0.119641	-0.352507	0.54149	2.16973	0.0434592	-0.269238	-0.20863	1.07168	2.021
0.22	0.244111	-0.116247	0.226916	0.0159919	1.06512	-0.216721	0.0326426	0.19535	-0.245565	0.0998863	-0.035314	0.103607	-0.0670114	-0.24897	-0.365821	-0.132238	0.89636	-0.160185	0.186698	-0.0830808	-0.445506	0.158063	-0.00226194	-0.334905	-0.125381	-0.349893	0.558467	2.16773	0.0314275	-0.262897	-0.210184	1.06019	2.01255
0.23	0.242374	-0.121291	0.225577	0.0297256	1.06611	-0.215651	0.0247391	0.20404	-0.239602	0.105638	-0.0253917	0.0983686	-0.0670186	-0.206555	-0.368667	-0.107245	0.949796	-0.157364	0.170313	-0.0830122	-0.444693	0.159263	0.00632095	-0.325142	-0.131173	-0.347875	0.575752	2.16513	0.020029	-0.256645	-0.211423	1.04659	2.00537
0.24	0.241383	-0.124583	0.224318	0.0432543	1.06718	-0.21467	0.0146173	0.211516	-0.230228	0.109091	-0.0162258	0.0902308	-0.0670258	-0.165424	-0.368027	-0.0825811	0.99792	-0.142053	0.158927	-0.0829437	-0.445095	0.158886	0.0140834	-0.314276	-0.136845	-0.346734	0.593087	2.16219	0.00913994	-0.250595	-0.212356	1.0309	1.9996
0.25	0.241103	-0.126005	0.22297	0.056613	1.06835	-0.213761	0.00234932	0.217513	-0.218188	0.110528	-0.00784752	0.0800498	-0.067033	-0.126126	-0.363958	-0.0591077	1.03996	-0.116587	0.151178	-0.0828752	-0.446636	0.156747	0.0210754	-0.30238	-0.142264	-0.34665	0.610277	2.15915	-0.00137959	-0.244828	-0.212981	1.01316	1.99523
0.26	0.241379	-0.125563	0.221361	0.0698305	1.06962	-0.212914	-0.0118182	0.221852	-0.204303	0.110326	-9.1004e-05	0.0688005	-0.0670402	-0.088986	-0.356689	-0.0375919	1.07538	-0.0839291	0.145449	-0.0828066	-0.449138	0.152778	0.0273914	-0.289569	-0.147351	-0.347681	0.627202	2.15615	-0.0116767	-0.239381	-0.213303	0.993449	1.99209
0.27	0.242008	-0.123391	0.219342	0.0829295	1.07098	-0.212114	-0.0275079	0.224461	-0.189381	0.108886	0.00733126	0.0574516	-0.0670474	-0.0541223	-0.346588	-0.0186221	1.10387	-0.0471855	0.140127	-0.082738	-0.452328	0.147033	0.0331424	-0.27599	-0.152085	-0.349761	0.643812	2.15326	-0.0218953	-0.234252	-0.213344	0.971887	1.98992
0.28	0.242769	-0.119716	0.216805	0.0959355	1.0724	-0.211352	-0.0442799	0.225374	-0.174151	0.106568	0.0147469	0.0468706	-0.0670546	-0.0214914	-0.334117	-0.00255367	1.12531	-0.00915947	0.133831	-0.0826694	-0.455884	0.139683	0.0384379	-0.26181	-0.156507	-0.352719	0.660131	2.15042	-0.032165	-0.2294	-0.213142	0.948634	1.98839
0.29	0.243442	-0.114824	0.213697	0.108871	1.07385	-0.210627	-0.0617024	0.224727	-0.159224	0.103648	0.0224519	0.0377615	-0.0670619	0.0090512	-0.319781	0.0105005	1.13975	0.0279413	0.125568	-0.0826007	-0.459487	0.130997	0.0433763	-0.247197	-0.160702	-0.35632	0.676235	2.14751	-0.0425897	-0.224754	-0.212748	0.923876	1.98721
0.3	0.243841	-0.10903	0.210012	0.121751	1.07527	-0.209942	-0.0794051	0.222732	-0.145067	0.100297	0.0306593	0.0306294	-0.0670691	0.0376923	-0.304095	0.0206342	1.14735	0.0626162	0.114802	-0.082532	-0.462858	0.1213	0.0480467	-0.232315	-0.164786	-0.360299	0.692238	2.14436	-0.0532395	-0.220234	-0.212212	0.897823	1.98613
0.31	0.243836	-0.102646	0.205779	0.134588	1.07664	-0.2093	-0.0971081	0.219641	-0.131986	0.0965862	0.0394765	0.0257667	-0.0670763	0.06461	-0.287552	0.028079	1.14834	0.0940145	0.101434	-0.0824632	-0.465784	0.110935	0.0525396	-0.21731	-0.168886	-0.364403	0.70827	2.14084	-0.0641458	-0.215756	-0.211577	0.870695	1.98501
0.32	0.243363	-0.0959566	0.201032	0.147395	1.07791	-0.208703	-0.114629	0.215719	-0.120123	0.0925255	0.0489084	0.0232559	-0.0670835	0.0899353	-0.270605	0.0331179	1.14296	0.121766	0.0857159	-0.0823945	-0.468138	0.100218	0.0569604	-0.202307	-0.173126	-0.368413	0.724447	2.13684	-0.0753011	-0.211245	-0.210882	0.842715	1.98382
0.33	0.242415	-0.0892048	0.195792	0.16018	1.07908	-0.208147	-0.131869	0.211213	-0.109455	0.0881063	0.0588821	0.0229876	-0.0670908	0.11373	-0.253666	0.0360019	1.13144	0.145774	0.0681396	-0.0823257	-0.469878	0.0894142	0.0614406	-0.1874	-0.177614	-0.372151	0.74086	2.13233	-0.0866633	-0.206644	-0.210156	0.814103	1.98265
0.34	0.241036	-0.0825806	0.190048	0.172948	1.08009	-0.207626	-0.14879	0.206329	-0.0998109	0.0833489	0.0692824	0.0246916	-0.067098	0.135983	-0.237102	0.0368864	1.11403	0.16604	0.0493236	-0.0822569	-0.471042	0.0787132	0.0661397	-0.172655	-0.18244	-0.37548	0.757552	2.12734	-0.0981651	-0.201911	-0.209427	0.785069	1.98169
0.35	0.239308	-0.0762206	0.183752	0.1857	1.08095	-0.207133	-0.165392	0.201229	-0.0909094	0.0783321	0.0799882	0.027981	-0.0671053	0.156618	-0.221236	0.0357981	1.09092	0.182564	0.0299345	-0.082188	-0.471726	0.0682319	0.0712353	-0.158109	-0.187672	-0.378284	0.774514	2.12197	-0.109727	-0.197021	-0.208728	0.755812	1.9812
0.36	0.237333	-0.0702133	0.176832	0.198432	1.08164	-0.206652	-0.181691	0.196025	-0.082404	0.0731998	0.0909014	0.0324073	-0.0671126	0.175514	-0.206342	0.0326378	1.06236	0.195338	0.0106565	-0.0821191	-0.472066	0.0580272	0.0769016	-0.143771	-0.193359	-0.380456	0.791683	2.11636	-0.121274	-0.191963	-0.208103	0.726529	1.98145
0.37	0.235229	-0.0646083	0.169217	0.211145	1.08215	-0.206168	-0.197716	0.190789	-0.0739441	0.0681428	0.101964	0.0375188	-0.0671198	0.192531	-0.192642	0.0272133	1.0286	0.204411	-0.00778871	-0.0820502	-0.472212	0.0481188	0.0832803	-0.129626	-0.199532	-0.381884	0.80895	2.11067	-0.132752	-0.186729	-0.207611	0.697417	1.98271
0.38	0.233117	-0.059428	0.160862	0.223838	1.08248	-0.20567	-0.213511	0.18557	-0.065236	0.0633642	0.113162	0.042916	-0.0671271	0.207536	-0.180294	0.0192942	0.989983	0.209996	-0.0245878	-0.0819813	-0.472311	0.0385154	0.0904481	-0.115644	-0.206207	-0.382454	0.826171	2.10507	-0.144144	-0.181315	-0.20733	0.668686	1.98519
